FFmpeg version SVN-r25716, Copyright (c) 2000-2010 the FFmpeg developers  built on Nov 10 2010 12:23:18 with gcc 4.1.2 20080704 (Red Hat 4.1.2-48)  configuration: --enable-libmp3lame --enable-shared --disable-mmx --arch=x86_64  libavutil     50.33. 0 / 50.33. 0  libavcore      0.12. 1 /  0.12. 1  libavcodec    52.94. 4 / 52.94. 4  libavformat   52.84. 0 / 52.84. 0  libavdevice   52. 2. 2 / 52. 2. 2  libavfilter    1.59. 0 /  1.59. 0  libswscale     0.12. 0 /  0.12. 0[mov,mp4,m4a,3gp,3g2,mj2 @ 0x220a4c0] max_analyze_duration reachedSeems stream 0 codec frame rate differs from container frame rate: 600.00 (600/1) -> 15.00 (15/1)Input #0, mov,mp4,m4a,3gp,3g2,mj2, from '/RAID10/data/converted_video_files/35276.mov':  Duration: 00:00:45.00, bitrate: 163 kb/s    Stream #0.0(eng): Video: svq1, yuv410p, 220x220, 162 kb/s, 15 fps, 15 tbr, 600 tbn, 600 tbc[buffer @ 0x2212e20] w:220 h:220 pixfmt:yuv410p[ffsink @ 0x220d710] auto-inserting filter 'auto-inserted scaler 0' between the filter 'src' and the filter 'out'[scale @ 0x220da30] w:220 h:220 fmt:yuv410p -> w:220 h:220 fmt:yuv420p flags:0x4Output #0, flv, to '/RAID10/data/converted_video_files/35276.flv':  Metadata:    encoder         : Lavf52.84.0    Stream #0.0(eng): Video: flv, yuv420p, 220x220, q=2-31, 600 kb/s, 1k tbn, 24 tbcStream mapping:  Stream #0.0 -> #0.0Press [q] to stop encodingframe=  297 fps=  0 q=2.0 size=     418kB time=19.75 bitrate= 173.4kbits/s    frame=  499 fps=485 q=2.0 size=     916kB time=33.25 bitrate= 225.8kbits/s    frame=  646 fps=422 q=2.0 size=    1527kB time=43.04 bitrate= 290.6kbits/s    frame=  675 fps=406 q=2.0 Lsize=    1644kB time=44.96 bitrate= 299.6kbits/s    video:1634kB audio:0kB global headers:0kB muxing overhead 0.658176%